<svg id="svg" version="1.1" xmlns="http://www.w3.org/2000/svg" xmlns:xlink="http://www.w3.org/1999/xlink" width="400" height="393.32273449920507" viewBox="0, 0, 400,393.32273449920507"><g id="svgg"><path id="path0" d="M191.346 2.461 C 192.270 2.525,193.701 2.524,194.526 2.459 C 195.351 2.394,194.595 2.341,192.846 2.342 C 191.097 2.343,190.422 2.396,191.346 2.461 M206.121 2.459 C 206.952 2.525,208.311 2.525,209.141 2.459 C 209.972 2.394,209.293 2.340,207.631 2.340 C 205.970 2.340,205.290 2.394,206.121 2.459 M185.930 2.774 C 186.498 2.844,187.428 2.844,187.997 2.774 C 188.565 2.703,188.100 2.645,186.963 2.645 C 185.827 2.645,185.362 2.703,185.930 2.774 M212.645 2.774 C 213.216 2.845,214.075 2.843,214.553 2.771 C 215.030 2.698,214.563 2.640,213.514 2.642 C 212.464 2.644,212.073 2.703,212.645 2.774 M182.278 3.090 C 182.761 3.163,183.477 3.161,183.868 3.086 C 184.259 3.010,183.863 2.950,182.989 2.953 C 182.114 2.955,181.794 3.017,182.278 3.090 M216.936 3.090 C 217.419 3.163,218.135 3.161,218.526 3.086 C 218.917 3.010,218.521 2.950,217.647 2.953 C 216.773 2.955,216.453 3.017,216.936 3.090 M178.935 3.404 C 179.328 3.480,179.972 3.480,180.366 3.404 C 180.759 3.328,180.437 3.266,179.650 3.266 C 178.863 3.266,178.541 3.328,178.935 3.404 M220.270 3.404 C 220.664 3.480,221.308 3.480,221.701 3.404 C 222.095 3.328,221.773 3.266,220.986 3.266 C 220.199 3.266,219.877 3.328,220.270 3.404 M176.077 3.722 C 176.472 3.799,177.045 3.796,177.349 3.716 C 177.653 3.636,177.329 3.574,176.630 3.578 C 175.930 3.581,175.681 3.646,176.077 3.722 M223.454 3.722 C 223.849 3.799,224.421 3.796,224.725 3.716 C 225.029 3.636,224.706 3.574,224.006 3.578 C 223.307 3.581,223.058 3.646,223.454 3.722 M173.533 4.040 C 173.929 4.117,174.501 4.114,174.805 4.034 C 175.109 3.954,174.785 3.892,174.086 3.896 C 173.386 3.899,173.138 3.964,173.533 4.040 M225.997 4.040 C 226.393 4.117,226.965 4.114,227.269 4.034 C 227.573 3.954,227.250 3.892,226.550 3.896 C 225.851 3.899,225.602 3.964,225.997 4.040 M171.145 4.353 C 171.451 4.433,171.952 4.433,172.258 4.353 C 172.564 4.273,172.313 4.207,171.701 4.207 C 171.089 4.207,170.839 4.273,171.145 4.353 M228.378 4.353 C 228.684 4.433,229.185 4.433,229.491 4.353 C 229.797 4.273,229.547 4.207,228.935 4.207 C 228.323 4.207,228.072 4.273,228.378 4.353 M168.919 4.671 C 169.225 4.751,169.726 4.751,170.032 4.671 C 170.338 4.591,170.087 4.525,169.475 4.525 C 168.863 4.525,168.613 4.591,168.919 4.671 M231.320 4.788 C 232.019 4.932,232.949 5.043,233.386 5.033 C 233.896 5.021,233.725 4.920,232.909 4.751 C 232.210 4.607,231.280 4.496,230.843 4.506 C 230.333 4.518,230.504 4.619,231.320 4.788 M163.911 5.405 C 163.060 5.622,163.043 5.648,163.752 5.648 C 164.189 5.648,164.976 5.539,165.501 5.405 C 166.352 5.189,166.369 5.163,165.660 5.163 C 165.223 5.163,164.436 5.272,163.911 5.405 M237.679 5.901 C 238.728 6.138,239.801 6.321,240.064 6.308 C 240.809 6.270,237.458 5.466,236.566 5.469 C 236.129 5.470,236.630 5.664,237.679 5.901 M160.095 6.193 C 159.221 6.418,158.792 6.605,159.141 6.609 C 159.491 6.613,160.493 6.432,161.367 6.208 C 162.242 5.983,162.671 5.796,162.321 5.792 C 161.971 5.788,160.970 5.968,160.095 6.193 M241.335 6.677 C 241.773 6.817,242.417 6.932,242.766 6.932 C 243.270 6.932,243.237 6.879,242.607 6.677 C 242.170 6.537,241.526 6.423,241.176 6.423 C 240.673 6.423,240.706 6.476,241.335 6.677 M155.803 7.154 C 155.016 7.382,154.587 7.580,154.849 7.594 C 155.111 7.608,156.041 7.420,156.916 7.177 C 157.790 6.933,158.219 6.735,157.870 6.737 C 157.520 6.738,156.590 6.926,155.803 7.154 M248.649 8.412 C 251.534 9.163,254.946 10.092,256.231 10.476 C 257.515 10.860,258.627 11.113,258.702 11.038 C 258.951 10.789,244.779 6.963,243.822 7.021 C 243.591 7.034,245.763 7.661,248.649 8.412 M146.172 9.600 C 144.284 10.135,142.798 10.631,142.869 10.701 C 142.996 10.828,150.116 8.933,150.371 8.704 C 150.698 8.411,149.348 8.699,146.172 9.600 M139.587 11.606 C 138.450 12.016,137.671 12.362,137.855 12.376 C 138.040 12.389,139.185 12.054,140.399 11.629 C 141.614 11.205,142.393 10.859,142.130 10.859 C 141.868 10.860,140.723 11.196,139.587 11.606 M264.706 13.155 C 331.173 36.291,378.702 90.858,392.694 160.095 C 393.189 162.544,393.604 164.231,393.617 163.845 C 393.652 162.793,391.871 154.450,390.304 148.329 C 374.103 85.033,326.645 33.959,264.266 12.688 C 261.751 11.831,259.533 11.136,259.338 11.146 C 259.142 11.155,261.558 12.059,264.706 13.155 M134.817 13.103 C 79.640 33.959,40.801 70.421,19.087 121.753 C 13.813 134.222,6.548 159.611,6.706 165.024 C 6.719 165.461,7.080 163.959,7.508 161.685 C 20.290 93.813,66.224 39.453,131.797 14.594 C 134.944 13.401,137.305 12.429,137.043 12.433 C 136.781 12.438,135.779 12.739,134.817 13.103 M225.812 60.745 C 195.962 65.261,184.701 68.306,171.639 75.395 C 148.563 87.917,137.546 98.513,126.713 118.601 C 125.346 121.137,123.534 124.262,122.686 125.546 C 120.788 128.421,120.784 128.327,122.814 128.767 C 146.873 133.977,166.983 136.189,199.523 137.204 L 215.421 137.700 221.304 138.938 C 224.539 139.618,228.545 140.336,230.207 140.533 C 248.711 142.724,256.990 157.746,245.817 168.856 C 241.380 173.268,230.565 177.374,218.700 179.151 C 212.387 180.097,203.814 185.331,196.313 192.821 C 189.139 199.983,185.694 206.938,181.506 222.714 C 178.499 234.041,176.827 239.762,176.037 241.425 C 175.604 242.338,174.226 245.517,172.974 248.490 C 170.562 254.220,167.252 260.748,164.116 265.960 L 162.213 269.123 163.539 269.717 C 173.744 274.286,188.266 275.552,214.149 274.129 C 220.418 273.784,230.118 273.255,258.665 271.698 C 276.449 270.728,283.307 270.092,283.307 269.414 C 283.307 269.306,282.819 267.702,282.224 265.849 C 278.912 255.548,278.005 241.150,279.638 224.801 C 286.125 159.851,284.225 135.714,270.604 110.041 C 269.066 107.142,266.428 102.155,264.741 98.958 C 258.148 86.464,246.334 68.939,240.234 62.603 C 237.634 59.902,234.257 59.467,225.812 60.745 M113.150 130.445 C 112.516 131.888,111.403 134.407,110.676 136.044 C 108.814 140.238,98.341 172.219,97.102 177.494 C 96.363 180.642,96.198 188.287,96.643 198.728 C 97.541 219.781,95.769 255.040,92.173 287.693 C 91.384 294.856,91.240 294.389,93.821 293.026 C 94.946 292.432,96.612 291.705,97.524 291.409 C 98.436 291.114,99.312 290.708,99.471 290.508 C 99.758 290.146,99.822 288.238,100.460 261.049 C 100.978 238.945,101.351 231.829,102.874 214.944 C 103.308 210.135,103.769 204.483,103.898 202.385 L 104.134 198.569 112.242 198.465 C 119.975 198.367,130.187 198.679,142.562 199.394 L 148.240 199.721 149.444 198.925 C 154.305 195.707,165.811 185.574,166.878 183.571 C 167.337 182.707,166.479 181.581,160.847 175.662 C 158.676 173.380,155.569 169.695,153.941 167.471 C 152.313 165.248,150.688 163.272,150.330 163.080 C 149.433 162.600,129.863 162.370,119.396 162.717 C 109.576 163.042,109.924 163.153,111.293 160.134 C 111.830 158.952,113.033 155.741,113.967 152.998 C 114.902 150.256,116.636 145.305,117.820 141.997 C 119.789 136.499,119.936 135.917,119.526 135.249 C 118.356 133.339,114.608 127.850,114.464 127.837 C 114.375 127.829,113.784 129.002,113.150 130.445 M118.735 131.339 C 119.758 132.815,120.862 134.318,121.188 134.679 C 121.859 135.422,121.920 135.857,121.462 136.650 C 121.117 137.248,119.299 142.332,116.375 150.874 C 115.357 153.847,114.099 157.379,113.578 158.722 L 112.632 161.164 129.845 161.107 C 149.206 161.042,151.874 161.187,152.306 162.323 C 153.256 164.821,167.084 180.971,168.825 181.615 C 169.960 182.035,169.784 182.501,167.428 185.310 C 164.270 189.074,160.670 192.271,152.150 198.879 L 148.975 201.342 146.268 201.142 C 138.760 200.585,122.530 200.000,114.604 200.000 L 105.678 200.000 105.142 206.598 C 104.847 210.227,104.328 216.343,103.990 220.191 C 103.044 230.931,102.741 236.510,102.389 249.698 C 102.090 260.868,101.591 277.143,101.236 287.276 C 101.070 292.005,101.232 291.698,98.369 292.733 C 94.930 293.977,90.938 296.264,90.938 296.990 C 90.938 297.327,90.437 299.735,89.825 302.341 C 88.319 308.752,88.215 308.477,91.416 306.517 C 96.247 303.560,103.661 300.181,115.262 295.646 C 137.538 286.939,142.606 284.664,148.498 280.724 C 158.003 274.367,165.080 263.791,173.417 243.483 C 175.794 237.691,176.539 235.322,179.534 224.006 C 182.561 212.572,183.552 209.678,186.387 203.997 C 191.354 194.044,199.576 186.059,210.970 180.124 C 212.544 179.304,214.046 178.453,214.308 178.232 C 214.571 178.010,216.359 177.675,218.283 177.485 C 229.857 176.345,242.453 171.272,246.269 166.214 C 254.396 155.444,245.483 143.355,228.299 141.839 C 226.638 141.692,223.847 141.211,222.099 140.770 C 216.515 139.362,215.685 139.286,200.477 138.797 C 171.305 137.861,161.880 137.070,143.402 134.012 C 127.708 131.415,120.169 129.926,117.499 128.896 C 117.062 128.728,117.434 129.463,118.735 131.339 M393.705 165.342 C 393.696 165.779,393.875 167.281,394.103 168.680 C 394.332 170.079,394.527 170.795,394.537 170.270 C 394.547 169.746,394.367 168.243,394.138 166.932 C 393.908 165.620,393.713 164.905,393.705 165.342 M6.356 166.322 C 6.353 166.570,6.067 169.053,5.720 171.841 C 5.372 174.628,5.109 177.419,5.135 178.041 C 5.191 179.360,5.091 180.032,6.069 171.749 C 6.427 168.715,6.639 166.151,6.540 166.052 C 6.441 165.953,6.358 166.074,6.356 166.322 M394.669 172.337 C 394.662 172.949,394.766 174.237,394.899 175.199 C 395.110 176.721,395.143 176.783,395.158 175.676 C 395.167 174.976,395.063 173.688,394.927 172.814 C 394.729 171.540,394.677 171.445,394.669 172.337 M128.604 175.742 L 147.987 175.849 148.748 176.557 C 149.503 177.260,149.607 182.939,148.928 186.407 C 148.676 187.697,148.068 187.734,139.683 186.974 C 134.860 186.537,127.501 186.180,119.396 185.990 C 106.162 185.681,105.468 185.636,104.737 185.029 C 102.943 183.540,106.252 174.760,108.371 175.385 C 108.839 175.522,117.943 175.683,128.604 175.742 M395.326 178.696 C 395.326 179.658,395.385 180.052,395.458 179.571 C 395.531 179.090,395.531 178.303,395.458 177.822 C 395.385 177.341,395.326 177.734,395.326 178.696 M4.611 183.208 C 4.487 185.361,4.441 187.480,4.508 187.917 C 4.576 188.355,4.741 186.657,4.875 184.144 C 5.009 181.632,5.055 179.512,4.977 179.434 C 4.900 179.356,4.734 181.054,4.611 183.208 M395.653 182.671 C 395.654 183.895,395.712 184.357,395.781 183.697 C 395.849 183.037,395.848 182.036,395.778 181.471 C 395.708 180.907,395.651 181.447,395.653 182.671 M395.985 188.394 C 395.986 190.318,396.038 191.064,396.102 190.052 C 396.165 189.040,396.164 187.466,396.100 186.554 C 396.036 185.643,395.985 186.471,395.985 188.394 M4.269 196.025 C 4.269 199.873,4.315 201.403,4.371 199.426 C 4.427 197.449,4.427 194.301,4.371 192.431 C 4.315 190.560,4.269 192.178,4.269 196.025 M396.303 196.025 C 396.304 197.949,396.356 198.695,396.420 197.683 C 396.483 196.671,396.482 195.097,396.418 194.186 C 396.354 193.274,396.303 194.102,396.303 196.025 M395.985 203.657 C 395.986 205.580,396.038 206.326,396.102 205.314 C 396.165 204.302,396.164 202.728,396.100 201.817 C 396.036 200.905,395.985 201.733,395.985 203.657 M111.642 203.215 C 113.040 204.613,111.526 207.760,109.549 207.567 C 107.575 207.373,107.692 203.970,109.708 202.950 C 110.755 202.421,110.861 202.435,111.642 203.215 M119.852 204.191 C 120.450 205.261,120.070 206.506,118.876 207.395 C 116.792 208.947,115.008 205.905,116.895 204.018 C 117.989 202.925,119.184 202.995,119.852 204.191 M128.219 204.069 C 129.307 205.009,128.780 206.966,127.223 207.771 C 126.245 208.277,124.031 207.873,123.982 207.180 C 123.969 206.991,123.907 206.567,123.845 206.237 C 123.460 204.194,126.578 202.648,128.219 204.069 M4.563 206.041 C 4.563 207.528,4.617 208.136,4.684 207.393 C 4.751 206.649,4.751 205.433,4.684 204.690 C 4.617 203.947,4.563 204.555,4.563 206.041 M136.523 204.475 C 137.691 205.393,137.682 207.015,136.504 207.941 C 134.741 209.328,132.390 207.744,133.224 205.731 C 133.988 203.888,135.193 203.428,136.523 204.475 M146.698 204.793 C 148.147 205.933,147.201 208.519,145.145 209.035 C 143.267 209.507,141.628 207.260,142.779 205.791 C 144.119 204.082,145.385 203.759,146.698 204.793 M395.297 212.242 C 395.071 215.040,394.613 219.332,394.279 221.781 C 393.502 227.478,393.279 229.492,393.469 229.094 C 394.022 227.937,395.986 210.538,395.808 208.372 C 395.753 207.702,395.523 209.444,395.297 212.242 M4.871 210.811 C 4.871 211.948,4.929 212.413,4.999 211.844 C 5.070 211.276,5.070 210.346,4.999 209.777 C 4.929 209.209,4.871 209.674,4.871 210.811 M5.114 213.831 C 5.066 215.086,6.143 224.147,6.267 223.529 C 6.319 223.267,6.090 220.763,5.757 217.965 C 5.423 215.167,5.134 213.307,5.114 213.831 M110.861 214.488 C 112.327 215.954,110.974 218.899,108.928 218.695 C 106.845 218.488,106.430 215.213,108.354 214.168 C 109.566 213.511,109.929 213.557,110.861 214.488 M118.590 214.923 C 119.871 217.317,117.098 220.512,115.598 218.371 C 114.938 217.428,114.976 216.588,115.736 215.342 C 116.486 214.112,118.034 213.885,118.590 214.923 M136.143 215.153 C 137.741 216.599,135.913 219.999,133.783 219.543 C 132.373 219.240,132.273 219.155,132.273 218.248 C 132.273 215.840,134.731 213.874,136.143 215.153 M127.175 215.559 C 128.316 217.692,126.275 220.758,124.387 219.747 C 123.645 219.350,122.996 217.706,123.272 216.923 C 123.917 215.092,126.451 214.207,127.175 215.559 M145.243 215.784 C 146.226 216.047,146.983 217.546,146.617 218.504 C 146.007 220.101,144.320 220.925,143.184 220.181 C 140.752 218.588,142.419 215.028,145.243 215.784 M6.538 225.755 C 6.736 227.995,7.980 234.733,8.162 234.551 C 8.238 234.475,8.013 232.859,7.662 230.959 C 7.311 229.059,6.880 226.717,6.704 225.755 L 6.384 224.006 6.538 225.755 M125.914 225.437 C 127.262 226.785,126.180 229.889,124.362 229.889 C 122.242 229.889,122.160 225.574,124.269 225.016 C 125.196 224.771,125.265 224.788,125.914 225.437 M118.337 225.645 C 119.682 226.863,118.407 229.889,116.549 229.889 C 115.573 229.889,114.346 228.755,114.602 228.089 C 114.703 227.826,114.785 227.402,114.785 227.146 C 114.785 225.677,117.231 224.644,118.337 225.645 M110.343 225.925 C 111.368 227.160,110.146 229.889,108.569 229.889 C 107.062 229.889,106.277 227.268,107.436 226.109 C 108.223 225.323,109.762 225.225,110.343 225.925 M135.339 226.248 C 136.885 227.794,134.774 231.205,132.894 230.199 C 131.323 229.358,131.498 226.835,133.192 225.914 C 134.315 225.303,134.409 225.318,135.339 226.248 M144.519 227.031 C 145.627 228.256,144.926 230.659,143.402 230.856 C 141.208 231.141,140.227 229.841,141.200 227.936 C 142.055 226.258,143.470 225.873,144.519 227.031 M392.087 234.725 C 378.492 300.147,330.505 355.497,268.206 377.613 C 266.884 378.083,265.861 378.527,265.934 378.600 C 266.134 378.799,271.644 376.690,277.873 374.030 C 333.064 350.456,373.752 304.012,389.511 246.601 C 391.238 240.311,393.407 230.694,393.258 229.990 C 393.206 229.746,392.679 231.876,392.087 234.725 M8.283 235.352 C 8.253 236.348,11.421 248.458,13.215 254.211 C 28.951 304.653,67.286 348.340,115.580 370.868 C 124.411 374.987,138.842 380.655,140.329 380.587 C 140.533 380.578,138.339 379.745,135.453 378.736 C 72.530 356.729,26.444 306.315,9.993 241.494 C 9.061 237.822,8.292 235.058,8.283 235.352 M109.516 236.748 C 110.647 237.878,109.761 240.700,108.275 240.700 C 106.222 240.700,105.785 238.840,107.448 237.177 C 108.511 236.114,108.819 236.050,109.516 236.748 M144.253 237.719 C 145.578 239.741,142.617 242.458,140.929 240.770 C 140.118 239.959,140.322 238.775,141.485 237.530 C 142.492 236.452,143.466 236.519,144.253 237.719 M125.517 237.784 C 126.607 239.137,125.255 241.485,123.504 241.280 C 122.828 241.201,122.556 240.950,122.359 240.223 C 121.724 237.885,124.112 236.041,125.517 237.784 M117.834 237.995 C 119.203 240.084,116.286 242.851,114.636 241.028 C 113.799 240.104,113.920 238.797,114.922 237.935 C 116.047 236.968,117.176 236.991,117.834 237.995 M134.746 237.697 C 136.254 238.752,135.041 241.335,133.038 241.335 C 130.971 241.335,130.878 238.641,132.909 237.613 C 133.913 237.106,133.901 237.105,134.746 237.697 M116.533 247.579 C 118.007 248.145,117.703 251.221,116.120 251.743 C 114.429 252.300,113.823 251.737,113.760 249.551 C 113.717 248.033,115.119 247.037,116.533 247.579 M108.096 248.006 C 108.888 248.430,109.427 250.074,109.076 250.996 C 108.649 252.121,106.880 252.753,106.317 251.983 C 105.041 250.238,106.437 247.118,108.096 248.006 M125.015 249.175 C 126.144 250.197,125.123 252.464,123.534 252.464 C 122.711 252.464,121.463 251.367,121.463 250.644 C 121.463 249.103,123.846 248.117,125.015 249.175 M134.171 249.682 C 134.789 250.791,134.164 252.128,132.803 252.607 C 131.583 253.036,130.866 252.511,130.745 251.099 C 130.550 248.819,133.102 247.763,134.171 249.682 M109.078 259.171 C 109.534 260.024,109.243 261.174,108.362 261.994 C 107.032 263.234,105.564 262.552,105.564 260.693 C 105.564 258.919,108.307 257.731,109.078 259.171 M115.878 259.134 C 117.267 259.662,116.820 262.507,115.234 263.230 C 113.125 264.191,112.022 260.435,114.084 259.316 C 115.137 258.745,114.914 258.767,115.878 259.134 M123.936 259.636 C 125.536 260.757,124.049 263.594,122.116 263.109 C 120.582 262.724,120.392 261.379,121.681 260.033 C 122.665 259.007,122.962 258.954,123.936 259.636 M108.727 270.017 C 109.659 271.683,107.271 273.593,105.856 272.313 C 105.025 271.561,105.090 270.945,106.113 269.877 C 107.157 268.788,108.066 268.836,108.727 270.017 M116.318 271.167 C 116.441 272.457,115.692 273.688,114.618 273.957 C 113.565 274.222,112.878 273.606,112.878 272.398 C 112.878 270.067,116.101 268.914,116.318 271.167 M263.911 379.173 C 263.299 379.409,263.013 379.606,263.275 379.612 C 263.537 379.617,264.181 379.425,264.706 379.185 C 265.934 378.622,265.363 378.614,263.911 379.173 M259.777 380.445 C 258.641 380.855,257.862 381.202,258.046 381.215 C 258.231 381.229,259.375 380.893,260.590 380.469 C 261.804 380.045,262.583 379.698,262.321 379.699 C 262.059 379.699,260.914 380.035,259.777 380.445 M141.812 381.081 C 142.424 381.317,143.140 381.510,143.402 381.510 C 143.665 381.510,143.378 381.317,142.766 381.081 C 142.154 380.845,141.439 380.653,141.176 380.653 C 140.914 380.653,141.200 380.845,141.812 381.081 M255.008 381.897 C 253.879 382.281,253.650 382.424,254.361 382.303 C 255.651 382.081,257.930 381.281,257.234 381.294 C 256.971 381.298,255.970 381.570,255.008 381.897 M144.515 381.876 C 144.865 382.026,145.366 382.149,145.628 382.149 C 145.929 382.149,145.870 382.048,145.469 381.876 C 145.119 381.726,144.618 381.603,144.356 381.603 C 144.055 381.603,144.114 381.704,144.515 381.876 M146.741 382.469 C 147.091 382.622,147.878 382.838,148.490 382.949 C 149.254 383.088,149.403 383.064,148.967 382.873 C 148.617 382.720,147.830 382.504,147.218 382.393 C 146.454 382.254,146.304 382.278,146.741 382.469 M250.462 383.058 C 249.448 383.324,248.681 383.604,248.757 383.681 C 248.900 383.823,252.836 382.877,253.074 382.643 C 253.309 382.411,252.349 382.563,250.462 383.058 M149.788 383.280 C 149.991 383.483,155.057 384.742,155.538 384.709 C 155.771 384.693,154.674 384.339,153.100 383.922 C 150.252 383.167,149.536 383.028,149.788 383.280 M243.084 384.921 C 241.510 385.332,240.795 385.595,241.494 385.506 C 243.087 385.303,247.445 384.156,246.582 384.167 C 246.232 384.171,244.658 384.511,243.084 384.921 M156.757 385.056 C 157.194 385.196,157.838 385.310,158.188 385.310 C 158.691 385.310,158.658 385.257,158.029 385.056 C 157.591 384.916,156.948 384.801,156.598 384.801 C 156.094 384.801,156.127 384.854,156.757 385.056 M160.413 385.858 C 161.288 386.083,162.289 386.263,162.639 386.259 C 162.989 386.255,162.560 386.068,161.685 385.843 C 160.811 385.619,159.809 385.438,159.459 385.442 C 159.110 385.446,159.539 385.633,160.413 385.858 M237.202 386.169 C 236.240 386.392,235.811 386.576,236.248 386.579 C 236.685 386.582,237.758 386.401,238.633 386.176 C 240.697 385.645,239.485 385.639,237.202 386.169 M164.229 386.645 C 164.754 386.779,165.541 386.888,165.978 386.888 C 166.687 386.888,166.670 386.862,165.819 386.645 C 165.294 386.512,164.507 386.403,164.070 386.403 C 163.361 386.403,163.378 386.429,164.229 386.645 M232.750 386.963 C 231.678 387.189,231.672 387.198,232.591 387.202 C 233.116 387.204,233.975 387.097,234.499 386.963 C 235.819 386.628,234.346 386.628,232.750 386.963 M169.237 387.501 C 169.543 387.581,170.044 387.581,170.350 387.501 C 170.656 387.421,170.405 387.355,169.793 387.355 C 169.181 387.355,168.931 387.421,169.237 387.501 M229.968 387.501 C 230.274 387.581,230.775 387.581,231.081 387.501 C 231.387 387.421,231.137 387.355,230.525 387.355 C 229.913 387.355,229.662 387.421,229.968 387.501 M171.463 387.819 C 171.769 387.899,172.269 387.899,172.576 387.819 C 172.882 387.739,172.631 387.673,172.019 387.673 C 171.407 387.673,171.157 387.739,171.463 387.819 M227.742 387.819 C 228.048 387.899,228.549 387.899,228.855 387.819 C 229.161 387.739,228.911 387.673,228.299 387.673 C 227.687 387.673,227.436 387.739,227.742 387.819 M174.006 388.137 C 174.312 388.216,174.813 388.216,175.119 388.137 C 175.425 388.057,175.175 387.991,174.563 387.991 C 173.951 387.991,173.700 388.057,174.006 388.137 M225.361 388.142 C 225.757 388.218,226.329 388.215,226.633 388.136 C 226.937 388.056,226.614 387.994,225.914 387.998 C 225.215 388.001,224.966 388.066,225.361 388.142 M176.713 388.460 C 177.108 388.536,177.681 388.533,177.985 388.454 C 178.289 388.374,177.965 388.312,177.266 388.315 C 176.566 388.319,176.317 388.384,176.713 388.460 M222.818 388.460 C 223.213 388.536,223.786 388.533,224.090 388.454 C 224.394 388.374,224.070 388.312,223.370 388.315 C 222.671 388.319,222.422 388.384,222.818 388.460 M179.571 388.778 C 179.964 388.853,180.608 388.853,181.002 388.778 C 181.395 388.702,181.073 388.640,180.286 388.640 C 179.499 388.640,179.177 388.702,179.571 388.778 M219.634 388.778 C 220.028 388.853,220.672 388.853,221.065 388.778 C 221.459 388.702,221.137 388.640,220.350 388.640 C 219.563 388.640,219.241 388.702,219.634 388.778 M182.914 389.099 C 183.397 389.172,184.112 389.171,184.504 389.095 C 184.895 389.020,184.499 388.960,183.625 388.962 C 182.750 388.965,182.430 389.026,182.914 389.099 M215.978 389.099 C 216.459 389.172,217.246 389.172,217.727 389.099 C 218.207 389.026,217.814 388.967,216.852 388.967 C 215.890 388.967,215.497 389.026,215.978 389.099 M186.884 389.419 C 187.452 389.490,188.382 389.490,188.951 389.419 C 189.519 389.349,189.054 389.291,187.917 389.291 C 186.781 389.291,186.316 389.349,186.884 389.419 M211.360 389.419 C 211.925 389.489,212.926 389.490,213.586 389.421 C 214.246 389.352,213.784 389.295,212.560 389.294 C 211.335 389.292,210.796 389.348,211.360 389.419 M192.938 389.743 C 194.038 389.805,195.755 389.805,196.753 389.742 C 197.752 389.679,196.852 389.628,194.754 389.629 C 192.655 389.629,191.838 389.681,192.938 389.743 M203.749 389.743 C 204.848 389.805,206.565 389.805,207.564 389.742 C 208.563 389.679,207.663 389.628,205.564 389.629 C 203.466 389.629,202.649 389.681,203.749 389.743 " stroke="none" fill="#343433" fill-rule="evenodd"></path><path id="path1" d="M191.298 2.566 C 77.516 8.444,-6.699 106.063,5.750 217.647 C 17.576 323.653,114.745 400.272,222.258 388.367 C 338.807 375.462,418.016 263.812,390.659 150.997 C 368.771 60.736,284.197 -2.232,191.298 2.566 M237.082 60.456 C 241.061 61.458,255.721 81.866,264.741 98.958 C 266.428 102.155,269.066 107.142,270.604 110.041 C 284.225 135.714,286.125 159.851,279.638 224.801 C 278.005 241.150,278.912 255.548,282.224 265.849 C 282.819 267.702,283.307 269.306,283.307 269.414 C 283.307 270.092,276.449 270.728,258.665 271.698 C 230.118 273.255,220.418 273.784,214.149 274.129 C 188.266 275.552,173.744 274.286,163.539 269.717 L 162.213 269.123 164.116 265.960 C 167.252 260.748,170.562 254.220,172.974 248.490 C 174.226 245.517,175.604 242.338,176.037 241.425 C 176.827 239.762,178.499 234.041,181.506 222.714 C 185.694 206.938,189.139 199.983,196.313 192.821 C 203.814 185.331,212.387 180.097,218.700 179.151 C 230.565 177.374,241.380 173.268,245.817 168.856 C 256.990 157.746,248.711 142.724,230.207 140.533 C 228.545 140.336,224.539 139.618,221.304 138.938 L 215.421 137.700 199.523 137.204 C 166.983 136.189,146.873 133.977,122.814 128.767 C 120.784 128.327,120.788 128.421,122.686 125.546 C 123.534 124.262,125.346 121.137,126.713 118.601 C 136.459 100.529,146.023 90.559,163.911 79.826 C 178.221 71.239,186.497 67.896,199.682 65.377 C 225.239 60.493,233.114 59.457,237.082 60.456 M116.852 131.185 C 118.076 133.017,119.280 134.846,119.526 135.249 C 119.936 135.917,119.789 136.499,117.820 141.997 C 116.636 145.305,114.902 150.256,113.967 152.998 C 113.033 155.741,111.830 158.952,111.293 160.134 C 109.924 163.153,109.576 163.042,119.396 162.717 C 129.863 162.370,149.433 162.600,150.330 163.080 C 150.688 163.272,152.313 165.248,153.941 167.471 C 155.569 169.695,158.676 173.380,160.847 175.662 C 166.479 181.581,167.337 182.707,166.878 183.571 C 165.811 185.574,154.305 195.707,149.444 198.925 L 148.240 199.721 142.562 199.394 C 130.187 198.679,119.975 198.367,112.242 198.465 L 104.134 198.569 103.898 202.385 C 103.769 204.483,103.308 210.135,102.874 214.944 C 101.351 231.829,100.978 238.945,100.460 261.049 C 99.822 288.238,99.758 290.146,99.471 290.508 C 99.312 290.708,98.436 291.114,97.524 291.409 C 96.612 291.705,94.946 292.432,93.821 293.026 C 91.240 294.389,91.384 294.856,92.173 287.693 C 95.769 255.040,97.541 219.781,96.643 198.728 C 96.198 188.287,96.363 180.642,97.102 177.494 C 98.341 172.219,108.814 140.238,110.676 136.044 C 111.403 134.407,112.516 131.888,113.150 130.445 C 114.550 127.257,114.180 127.183,116.852 131.185 M120.350 129.744 C 122.977 130.461,131.690 132.074,143.402 134.012 C 161.880 137.070,171.305 137.861,200.477 138.797 C 215.685 139.286,216.515 139.362,222.099 140.770 C 223.847 141.211,226.638 141.692,228.299 141.839 C 245.483 143.355,254.396 155.444,246.269 166.214 C 242.453 171.272,229.857 176.345,218.283 177.485 C 216.359 177.675,214.571 178.010,214.308 178.232 C 214.046 178.453,212.544 179.304,210.970 180.124 C 199.576 186.059,191.354 194.044,186.387 203.997 C 183.552 209.678,182.561 212.572,179.534 224.006 C 176.539 235.322,175.794 237.691,173.417 243.483 C 165.080 263.791,158.003 274.367,148.498 280.724 C 142.606 284.664,137.538 286.939,115.262 295.646 C 103.661 300.181,96.247 303.560,91.416 306.517 C 88.215 308.477,88.319 308.752,89.825 302.341 C 90.437 299.735,90.938 297.327,90.938 296.990 C 90.938 296.264,94.930 293.977,98.369 292.733 C 101.232 291.698,101.070 292.005,101.236 287.276 C 101.591 277.143,102.090 260.868,102.389 249.698 C 102.741 236.510,103.044 230.931,103.990 220.191 C 104.328 216.343,104.847 210.227,105.142 206.598 L 105.678 200.000 114.604 200.000 C 122.530 200.000,138.760 200.585,146.268 201.142 L 148.975 201.342 152.150 198.879 C 160.670 192.271,164.270 189.074,167.428 185.310 C 169.784 182.501,169.960 182.035,168.825 181.615 C 167.084 180.971,153.256 164.821,152.306 162.323 C 151.874 161.187,149.206 161.042,129.845 161.107 L 112.632 161.164 113.578 158.722 C 114.099 157.379,115.357 153.847,116.375 150.874 C 119.299 142.332,121.117 137.248,121.462 136.650 C 121.920 135.857,121.859 135.422,121.188 134.679 C 119.651 132.976,116.902 128.666,117.499 128.896 C 117.843 129.029,119.126 129.410,120.350 129.744 M106.745 176.363 C 104.886 179.307,104.293 180.861,104.293 182.780 C 104.293 185.835,103.247 185.613,119.396 185.990 C 127.501 186.180,134.860 186.537,139.683 186.974 C 148.068 187.734,148.676 187.697,148.928 186.407 C 149.607 182.939,149.503 177.260,148.748 176.557 L 147.987 175.849 128.604 175.742 C 117.943 175.683,108.839 175.522,108.371 175.385 C 107.616 175.162,107.434 175.272,106.745 176.363 M109.708 202.950 C 107.692 203.970,107.575 207.373,109.549 207.567 C 111.526 207.760,113.040 204.613,111.642 203.215 C 110.861 202.435,110.755 202.421,109.708 202.950 M116.895 204.018 C 115.008 205.905,116.792 208.947,118.876 207.395 C 120.070 206.506,120.450 205.261,119.852 204.191 C 119.184 202.995,117.989 202.925,116.895 204.018 M125.743 203.509 C 124.877 203.835,123.709 205.514,123.845 206.237 C 123.907 206.567,123.969 206.991,123.982 207.180 C 124.031 207.873,126.245 208.277,127.223 207.771 C 129.955 206.358,128.594 202.437,125.743 203.509 M134.296 204.280 C 133.086 205.127,132.713 206.580,133.450 207.572 C 134.261 208.663,135.410 208.802,136.504 207.941 C 138.594 206.297,136.462 202.763,134.296 204.280 M144.144 204.542 C 142.633 205.390,142.048 206.549,142.597 207.610 C 143.567 209.487,145.300 209.604,146.742 207.890 C 148.495 205.807,146.492 203.226,144.144 204.542 M108.354 214.168 C 106.430 215.213,106.845 218.488,108.928 218.695 C 110.974 218.899,112.327 215.954,110.861 214.488 C 109.929 213.557,109.566 213.511,108.354 214.168 M115.736 215.342 C 114.976 216.588,114.938 217.428,115.598 218.371 C 117.098 220.512,119.871 217.317,118.590 214.923 C 118.034 213.885,116.486 214.112,115.736 215.342 M133.932 215.123 C 132.687 215.995,131.732 218.722,132.512 219.181 C 133.666 219.860,134.856 219.724,135.770 218.810 C 137.849 216.731,136.241 213.506,133.932 215.123 M124.109 215.660 C 123.194 216.677,123.031 217.331,123.417 218.440 C 124.326 221.046,127.504 219.907,127.504 216.975 C 127.504 214.937,125.470 214.149,124.109 215.660 M143.323 215.924 C 142.386 216.469,141.772 217.977,142.117 218.884 C 142.961 221.105,145.712 220.872,146.617 218.504 C 147.302 216.714,145.026 214.932,143.323 215.924 M124.269 225.016 C 122.160 225.574,122.242 229.889,124.362 229.889 C 126.180 229.889,127.262 226.785,125.914 225.437 C 125.265 224.788,125.196 224.771,124.269 225.016 M115.566 225.900 C 115.137 226.329,114.785 226.890,114.785 227.146 C 114.785 227.402,114.703 227.826,114.602 228.089 C 114.016 229.615,116.891 230.394,118.139 229.047 C 120.240 226.781,117.741 223.725,115.566 225.900 M107.436 226.109 C 106.277 227.268,107.062 229.889,108.569 229.889 C 110.146 229.889,111.368 227.160,110.343 225.925 C 109.762 225.225,108.223 225.323,107.436 226.109 M133.192 225.914 C 131.498 226.835,131.323 229.358,132.894 230.199 C 134.774 231.205,136.885 227.794,135.339 226.248 C 134.409 225.318,134.315 225.303,133.192 225.914 M142.201 226.605 C 141.267 226.980,140.569 229.039,141.059 229.973 C 142.037 231.839,145.098 230.827,145.098 228.639 C 145.098 226.988,143.696 226.003,142.201 226.605 M107.448 237.177 C 105.785 238.840,106.222 240.700,108.275 240.700 C 109.761 240.700,110.647 237.878,109.516 236.748 C 108.819 236.050,108.511 236.114,107.448 237.177 M141.485 237.530 C 140.322 238.775,140.118 239.959,140.929 240.770 C 142.617 242.458,145.578 239.741,144.253 237.719 C 143.466 236.519,142.492 236.452,141.485 237.530 M123.473 237.284 C 122.539 237.706,122.036 239.033,122.359 240.223 C 122.701 241.484,124.054 241.700,125.152 240.668 C 126.815 239.107,125.464 236.386,123.473 237.284 M114.922 237.935 C 113.920 238.797,113.799 240.104,114.636 241.028 C 116.286 242.851,119.203 240.084,117.834 237.995 C 117.176 236.991,116.047 236.968,114.922 237.935 M132.909 237.613 C 130.878 238.641,130.971 241.335,133.038 241.335 C 135.041 241.335,136.254 238.752,134.746 237.697 C 133.901 237.105,133.913 237.106,132.909 237.613 M114.453 247.961 C 113.729 248.547,113.547 249.795,113.984 251.172 C 114.424 252.557,116.793 252.021,117.322 250.418 C 118.088 248.099,116.238 246.515,114.453 247.961 M106.518 248.331 C 105.001 249.848,106.000 252.888,107.774 252.153 C 109.485 251.444,109.686 248.857,108.096 248.006 C 107.312 247.587,107.249 247.600,106.518 248.331 M122.154 249.385 C 121.278 250.317,121.279 250.997,122.159 251.816 C 123.420 252.991,125.596 252.061,125.596 250.347 C 125.596 248.742,123.348 248.114,122.154 249.385 M131.321 249.283 C 130.508 250.097,130.544 252.054,131.382 252.579 C 132.162 253.067,133.582 252.480,134.171 251.427 C 135.225 249.544,132.848 247.756,131.321 249.283 M106.256 259.241 C 105.098 260.473,105.539 262.639,106.946 262.639 C 107.835 262.639,108.989 261.612,109.244 260.593 C 109.720 258.697,107.648 257.760,106.256 259.241 M114.084 259.316 C 112.022 260.435,113.125 264.191,115.234 263.230 C 116.820 262.507,117.267 259.662,115.878 259.134 C 114.914 258.767,115.137 258.745,114.084 259.316 M121.681 260.033 C 120.392 261.379,120.582 262.724,122.116 263.109 C 124.049 263.594,125.536 260.757,123.936 259.636 C 122.962 258.954,122.665 259.007,121.681 260.033 M106.113 269.877 C 105.090 270.945,105.025 271.561,105.856 272.313 C 107.271 273.593,109.659 271.683,108.727 270.017 C 108.066 268.836,107.157 268.788,106.113 269.877 M113.583 270.673 C 112.210 272.134,112.919 274.384,114.618 273.957 C 116.543 273.474,117.071 270.195,115.252 270.017 C 114.568 269.950,114.084 270.140,113.583 270.673 " stroke="none" fill="#fc5c04" fill-rule="evenodd"></path></g></svg>